<?xml version="1.0" encoding="UTF-8" standalone="no"?>
<!-- Created with Inkscape (http://www.inkscape.org/) -->

<svg
   width="210mm"
   height="297mm"
   viewBox="0 0 210 297"
   version="1.1"
   id="svg32069"
   xml:space="preserve"
   inkscape:version="1.2.2 (b0a84865, 2022-12-01)"
   sodipodi:docname="penta-petals.svg"
   xmlns:inkscape="http://www.inkscape.org/namespaces/inkscape"
   xmlns:sodipodi="http://sodipodi.sourceforge.net/DTD/sodipodi-0.dtd"
   xmlns:xlink="http://www.w3.org/1999/xlink"
   xmlns="http://www.w3.org/2000/svg"
   xmlns:svg="http://www.w3.org/2000/svg"><sodipodi:namedview
     id="namedview32071"
     pagecolor="#ffffff"
     bordercolor="#000000"
     borderopacity="0.25"
     inkscape:showpageshadow="2"
     inkscape:pageopacity="0.0"
     inkscape:pagecheckerboard="0"
     inkscape:deskcolor="#d1d1d1"
     inkscape:document-units="mm"
     showgrid="false"
     inkscape:zoom="0.914906"
     inkscape:cx="240.46186"
     inkscape:cy="561.25984"
     inkscape:window-width="1463"
     inkscape:window-height="1205"
     inkscape:window-x="0"
     inkscape:window-y="25"
     inkscape:window-maximized="0"
     inkscape:current-layer="layer2" /><defs
     id="defs32066"><pattern
       inkscape:collect="always"
       xlink:href="#grid-5"
       id="pattern34822"
       patternTransform="matrix(0.26458333,0,0,0.26458333,19.067826,20.138299)" /><pattern
       id="grid"
       width="5mm"
       height="5mm"
       patternUnits="userSpaceOnUse"><path
         d="M 50 0 L 0 0 0 50"
         fill="none"
         stroke="black"
         stroke-width="1"
         id="path30827" /></pattern><pattern
       id="grid-5"
       width="5mm"
       height="5mm"
       patternUnits="userSpaceOnUse"><path
         d="M 50 0 L 0 0 0 50"
         fill="none"
         stroke="black"
         stroke-width="1"
         id="path30827-0" /></pattern></defs><g
     inkscape:label="Calque 1"
     inkscape:groupmode="layer"
     id="layer1"><rect
       width="80%"
       height="80%"
       fill="url(#grid)"
       id="rect30832"
       style="fill:url(#pattern34822);stroke-width:0.264583"
       x="19.067827"
       y="20.138292" /></g><g
     inkscape:groupmode="layer"
     id="layer2"
     inkscape:label="Calque 2"><path
       d="M 183.9654,135.066 125.95069,55.215599 32.080926,85.715736 V 184.41625 L 125.95069,214.91639 183.9654,135.066 m 0,0 A 98.700895,98.700895 0 0 1 32.080926,85.715736 M 125.95069,55.215599 A 98.700895,98.700895 0 0 1 32.080926,184.41625 m 0,-98.700514 A 98.700895,98.700895 0 0 1 125.95069,214.91639 M 32.080926,184.41625 A 98.700895,98.700895 0 0 1 183.9654,135.066 m -58.01471,79.85039 a 98.700895,98.700895 0 0 1 0,-159.700791"
       stroke="#ff0000"
       fill="none"
       id="path38875"
       style="stroke-width:0.209899" /></g></svg>
