<?xml version="1.0" encoding="UTF-8" standalone="no"?>
<!-- Created with Inkscape (http://www.inkscape.org/) -->

<svg
   width="210mm"
   height="297mm"
   viewBox="0 0 210 297"
   version="1.1"
   id="svg19500"
   inkscape:version="1.2.2 (b0a84865, 2022-12-01)"
   sodipodi:docname="triangles.svg"
   xmlns:inkscape="http://www.inkscape.org/namespaces/inkscape"
   xmlns:sodipodi="http://sodipodi.sourceforge.net/DTD/sodipodi-0.dtd"
   xmlns="http://www.w3.org/2000/svg"
   xmlns:svg="http://www.w3.org/2000/svg">
  <sodipodi:namedview
     id="namedview19502"
     pagecolor="#ffffff"
     bordercolor="#000000"
     borderopacity="0.25"
     inkscape:showpageshadow="2"
     inkscape:pageopacity="0.0"
     inkscape:pagecheckerboard="0"
     inkscape:deskcolor="#d1d1d1"
     inkscape:document-units="mm"
     showgrid="false"
     inkscape:zoom="1.2938725"
     inkscape:cx="404.21294"
     inkscape:cy="430.10421"
     inkscape:window-width="1463"
     inkscape:window-height="1205"
     inkscape:window-x="0"
     inkscape:window-y="25"
     inkscape:window-maximized="0"
     inkscape:current-layer="layer1" />
  <defs
     id="defs19497" />
  <g
     inkscape:label="Calque 1"
     inkscape:groupmode="layer"
     id="layer1">
    <g
       id="g21889">
      <path
         sodipodi:type="star"
         style="fill:none;stroke:#000000;stroke-width:0.369001"
         id="path20401"
         inkscape:flatsided="true"
         sodipodi:sides="3"
         sodipodi:cx="39.619278"
         sodipodi:cy="62.465431"
         sodipodi:r1="90.717772"
         sodipodi:r2="40.606743"
         sodipodi:arg1="0.69963619"
         sodipodi:arg2="1.7468338"
         inkscape:rounded="0"
         inkscape:randomized="0"
         d="M 109.02532,120.88218 -45.674128,93.364449 55.506647,-26.850334 Z"
         inkscape:transform-center-x="9.4193977"
         inkscape:transform-center-y="-11.592137"
         transform="translate(60.730282,81.262902)" />
      <path
         style="fill:none;stroke:#000000;stroke-width:0.369001"
         d="M 142.99626,128.27882 15.056154,174.62735"
         id="path21129" />
      <path
         style="fill:none;stroke:#000000;stroke-width:0.369001"
         d="M 92.405874,188.38621 116.23693,54.412567"
         id="path21131" />
      <path
         style="fill:none;stroke:#000000;stroke-width:0.369001"
         d="M 65.64654,114.51996 169.7556,202.14508"
         id="path21133" />
    </g>
    <path
       style="fill:none;stroke:#000000;stroke-width:0.369001"
       d="M 92.405874,188.38621 65.64654,114.51996 142.99626,128.27882 Z"
       id="path24251" />
    <path
       style="fill:none;stroke:#000000;stroke-width:0.369001"
       d="M 129.6166,91.345696 65.64654,114.51996 53.731014,181.50678"
       id="path24253" />
    <path
       style="fill:none;stroke:#000000;stroke-width:0.369001"
       d="M 131.08073,195.26565 142.99626,128.27882 90.941736,84.466263"
       id="path24255" />
    <path
       style="fill:none;stroke:#000000;stroke-width:0.369001"
       d="m 40.35135,144.57365 52.054524,43.81256 63.970056,-23.17426"
       id="path24257" />
    <path
       style="fill:none;stroke:#000000;stroke-width:0.369001"
       d="M 131.08073,195.26564 90.941736,84.466262"
       id="path24259" />
    <path
       style="fill:none;stroke:#000000;stroke-width:0.369001"
       d="M 53.731014,181.50678 40.35135,144.57365"
       id="path24261" />
    <path
       style="fill:none;stroke:#000000;stroke-width:0.369001"
       d="m 78.294139,99.49311 78.081791,65.71884 -25.2952,30.05369 -78.081784,-65.71883"
       id="path24263" />
    <path
       style="fill:none;stroke:#000000;stroke-width:0.369001"
       d="M 90.941736,84.466262 129.6166,91.345696"
       id="path24265" />
    <path
       style="fill:none;stroke:#000000;stroke-width:0.369001"
       d="m 53.731014,181.50678 95.955076,-34.7614"
       id="path24267" />
    <path
       style="fill:none;stroke:#000000;stroke-width:0.369001"
       d="m 40.35135,144.57365 95.95508,-34.76139"
       id="path24269" />
    <path
       style="fill:none;stroke:#000000;stroke-width:0.369001"
       d="M 90.941736,84.466262 122.92676,72.879129"
       id="path24271" />
    <path
       style="fill:none;stroke:#000000;stroke-width:0.369001"
       d="M 131.08073,195.26564 163.06576,183.6785"
       id="path24273" />
    <path
       style="fill:none;stroke:#000000;stroke-width:0.369001"
       d="M 129.6166,91.345696 103.58933,69.439416"
       id="path24296" />
    <path
       style="fill:none;stroke:#000000;stroke-width:0.369001"
       d="M 53.731014,181.50678 27.703751,159.6005"
       id="path24298" />
    <path
       style="fill:none;stroke:#000000;stroke-width:0.369001"
       d="m 40.35135,144.57365 -5.957763,33.49342"
       id="path24300" />
    <path
       style="fill:none;stroke:#000000;stroke-width:0.369001"
       d="M 90.941736,84.466262 73.068446,184.9465"
       id="path24302" />
    <path
       style="fill:none;stroke:#000000;stroke-width:0.369001"
       d="M 129.6166,91.345696 111.74331,191.82593"
       id="path24304" />
    <path
       style="fill:none;stroke:#000000;stroke-width:0.369001"
       d="m 156.37593,165.21195 -5.95777,33.49341"
       id="path24306" />
    <path
       style="fill:none;stroke:#000000;stroke-width:0.369001"
       d="m 103.58933,69.439416 19.33743,3.439713"
       id="path24308" />
    <path
       style="fill:none;stroke:#000000;stroke-width:0.369001"
       d="M 78.294139,99.493108 136.30643,109.81226"
       id="path24310" />
    <path
       style="fill:none;stroke:#000000;stroke-width:0.369001"
       d="m 52.998946,129.54681 96.687144,17.19857"
       id="path24312" />
    <path
       style="fill:none;stroke:#000000;stroke-width:0.369001"
       d="m 40.35135,144.57365 116.02458,20.6383"
       id="path24314" />
    <path
       style="fill:none;stroke:#000000;stroke-width:0.369001"
       d="M 163.06576,183.6785 27.703753,159.6005 24.724871,176.34721"
       id="path24316" />
    <path
       style="fill:none;stroke:#000000;stroke-width:0.369001"
       d="M 52.998946,129.54681 44.0623,179.78692"
       id="path24318" />
    <path
       style="fill:none;stroke:#000000;stroke-width:0.369001"
       d="M 78.294139,99.493106 63.39973,183.22664"
       id="path24320" />
    <path
       style="fill:none;stroke:#000000;stroke-width:0.369001"
       d="M 103.58933,69.439416 82.73716,186.66635"
       id="path24322" />
    <path
       style="fill:none;stroke:#000000;stroke-width:0.369001"
       d="M 122.92676,72.879129 102.07459,190.10607"
       id="path24324" />
    <path
       style="fill:none;stroke:#000000;stroke-width:0.369001"
       d="m 136.30643,109.81226 -14.89441,83.73353"
       id="path24326" />
    <path
       style="fill:none;stroke:#000000;stroke-width:0.369001"
       d="m 149.68609,146.74538 -8.93665,50.24012"
       id="path24328" />
    <path
       style="fill:none;stroke:#000000;stroke-width:0.369001"
       d="m 163.06575,183.6785 -2.97888,16.74672"
       id="path24330" />
    <path
       style="fill:none;stroke:#000000;stroke-width:0.369001"
       d="m 103.58933,69.439416 15.99251,-5.793568"
       id="path24332" />
    <path
       style="fill:none;stroke:#000000;stroke-width:0.369001"
       d="M 78.294139,99.493106 126.27168,82.11241"
       id="path24334" />
    <path
       style="fill:none;stroke:#000000;stroke-width:0.369001"
       d="M 52.998946,129.54681 132.96151,100.57898"
       id="path24336" />
    <path
       style="fill:none;stroke:#000000;stroke-width:0.369001"
       d="M 27.703753,159.6005 139.65134,119.04554"
       id="path24338" />
    <path
       style="fill:none;stroke:#000000;stroke-width:0.369001"
       d="M 34.393587,178.06707 146.34118,137.51211"
       id="path24340" />
    <path
       style="fill:none;stroke:#000000;stroke-width:0.369001"
       d="M 73.068446,184.9465 153.03101,155.97867"
       id="path24342" />
    <path
       style="fill:none;stroke:#000000;stroke-width:0.369001"
       d="m 111.74331,191.82593 47.97753,-17.3807"
       id="path24344" />
    <path
       style="fill:none;stroke:#000000;stroke-width:0.369001"
       d="M 34.393587,178.06707 21.379953,167.11392"
       id="path24350" />
    <path
       style="fill:none;stroke:#000000;stroke-width:0.369001"
       d="M 73.068446,184.9465 34.027549,152.08708"
       id="path24352" />
    <path
       style="fill:none;stroke:#000000;stroke-width:0.369001"
       d="M 111.74331,191.82593 46.675148,137.06023"
       id="path24354" />
    <path
       style="fill:none;stroke:#000000;stroke-width:0.369001"
       d="M 150.41816,198.70536 59.322742,122.03338"
       id="path24356" />
    <path
       style="fill:none;stroke:#000000;stroke-width:0.369001"
       d="M 163.06575,183.6785 71.970338,107.00653"
       id="path24358" />
    <path
       style="fill:none;stroke:#000000;stroke-width:0.369001"
       d="M 149.68609,146.74538 84.617937,91.979685"
       id="path24360" />
    <path
       style="fill:none;stroke:#000000;stroke-width:0.369001"
       d="M 136.30643,109.81226 97.265531,76.952839"
       id="path24362" />
    <path
       style="fill:none;stroke:#000000;stroke-width:0.369001"
       d="M 122.92676,72.879129 109.91313,61.92599"
       id="path24364" />
    <path
       style="fill:none;stroke:#000000;stroke-width:0.369001"
       d="m 150.41816,198.70536 15.99251,-5.79357"
       id="path24366" />
    <path
       style="fill:none;stroke:#000000;stroke-width:0.369001"
       d="M 21.379956,167.11392 166.41067,192.91179"
       id="path24368" />
    <path
       style="fill:none;stroke:#000000;stroke-width:0.369001"
       d="M 34.027549,152.08708 159.72084,174.44523"
       id="path24370" />
    <path
       style="fill:none;stroke:#000000;stroke-width:0.369001"
       d="M 46.675148,137.06023 153.03101,155.97867"
       id="path24372" />
    <path
       style="fill:none;stroke:#000000;stroke-width:0.369001"
       d="m 59.322744,122.03338 87.018436,15.47873"
       id="path24374" />
    <path
       style="fill:none;stroke:#000000;stroke-width:0.369001"
       d="m 71.970341,107.00653 67.680999,12.03901"
       id="path24376" />
    <path
       style="fill:none;stroke:#000000;stroke-width:0.369001"
       d="m 84.617937,91.979685 48.343573,8.599295"
       id="path24378" />
    <path
       style="fill:none;stroke:#000000;stroke-width:0.369001"
       d="M 97.265531,76.952839 126.27168,82.11241"
       id="path24380" />
    <path
       style="fill:none;stroke:#000000;stroke-width:0.369001"
       d="m 109.91313,61.92599 9.66871,1.719858"
       id="path24382" />
    <path
       style="fill:none;stroke:#000000;stroke-width:0.369001"
       d="m 21.379956,167.11392 -1.489442,8.37336"
       id="path24384" />
    <path
       style="fill:none;stroke:#000000;stroke-width:0.369001"
       d="m 34.027549,152.08708 -4.468323,25.12006"
       id="path24386" />
    <path
       style="fill:none;stroke:#000000;stroke-width:0.369001"
       d="m 46.675148,137.06023 -7.447206,41.86676"
       id="path24388" />
    <path
       style="fill:none;stroke:#000000;stroke-width:0.369001"
       d="M 59.322744,122.03338 48.896658,180.64685"
       id="path24390" />
    <path
       style="fill:none;stroke:#000000;stroke-width:0.369001"
       d="M 71.970343,107.00653 58.565375,182.36671"
       id="path24392" />
    <path
       style="fill:none;stroke:#000000;stroke-width:0.369001"
       d="M 84.617937,91.979685 68.234088,184.08657"
       id="path24394" />
    <path
       style="fill:none;stroke:#000000;stroke-width:0.369001"
       d="M 97.265531,76.952839 77.902802,185.80643"
       id="path24396" />
    <path
       style="fill:none;stroke:#000000;stroke-width:0.369001"
       d="M 109.91313,61.92599 87.571518,187.52628"
       id="path24398" />
    <path
       style="fill:none;stroke:#000000;stroke-width:0.369001"
       d="M 119.58184,63.645848 97.240226,189.24614"
       id="path24400" />
    <path
       style="fill:none;stroke:#000000;stroke-width:0.369001"
       d="M 126.27168,82.11241 106.90895,190.966"
       id="path24402" />
    <path
       style="fill:none;stroke:#000000;stroke-width:0.369001"
       d="m 132.96151,100.57898 -16.38385,92.10688"
       id="path24404" />
    <path
       style="fill:none;stroke:#000000;stroke-width:0.369001"
       d="m 139.65134,119.04554 -13.40497,75.36018"
       id="path24406" />
    <path
       style="fill:none;stroke:#000000;stroke-width:0.369001"
       d="m 146.34118,137.51211 -10.42609,58.61347"
       id="path24408" />
    <path
       style="fill:none;stroke:#000000;stroke-width:0.369001"
       d="m 153.03101,155.97867 -7.44721,41.86676"
       id="path24410" />
    <path
       style="fill:none;stroke:#000000;stroke-width:0.369001"
       d="m 159.72084,174.44523 -4.46832,25.12006"
       id="path24412" />
    <path
       style="fill:none;stroke:#000000;stroke-width:0.369001"
       d="m 166.41067,192.91179 -1.48944,8.37336"
       id="path24414" />
    <path
       style="fill:none;stroke:#000000;stroke-width:0.369001"
       d="m 160.08687,200.42522 6.3238,-7.51343"
       id="path24416" />
    <path
       style="fill:none;stroke:#000000;stroke-width:0.369001"
       d="M 150.41816,198.70536 163.06575,183.6785"
       id="path24418" />
    <path
       style="fill:none;stroke:#000000;stroke-width:0.369001"
       d="m 140.74944,196.9855 18.9714,-22.54027"
       id="path24420" />
    <path
       style="fill:none;stroke:#000000;stroke-width:0.369001"
       d="m 121.41202,193.54579 31.61899,-37.56712"
       id="path24422" />
    <path
       style="fill:none;stroke:#000000;stroke-width:0.369001"
       d="m 111.74331,191.82593 37.94278,-45.08055"
       id="path24424" />
    <path
       style="fill:none;stroke:#000000;stroke-width:0.369001"
       d="m 102.07459,190.10607 44.26659,-52.59396"
       id="path24426" />
    <path
       style="fill:none;stroke:#000000;stroke-width:0.369001"
       d="m 82.73716,186.66635 56.91418,-67.62081"
       id="path24428" />
    <path
       style="fill:none;stroke:#000000;stroke-width:0.369001"
       d="M 73.068446,184.9465 136.30643,109.81226"
       id="path24430" />
    <path
       style="fill:none;stroke:#000000;stroke-width:0.369001"
       d="m 63.39973,183.22664 69.56178,-82.64766"
       id="path24432" />
    <path
       style="fill:none;stroke:#000000;stroke-width:0.369001"
       d="M 53.731014,181.50678 129.6166,91.345696"
       id="path24434" />
    <path
       style="fill:none;stroke:#000000;stroke-width:0.369001"
       d="M 44.0623,179.78692 126.27168,82.112413"
       id="path24436" />
    <path
       style="fill:none;stroke:#000000;stroke-width:0.369001"
       d="M 34.393587,178.06707 122.92676,72.879129 v 0 0"
       id="path24438" />
    <path
       style="fill:none;stroke:#000000;stroke-width:0.369001"
       d="M 119.58184,63.645848 24.724871,176.34721 21.379956,167.11392"
       id="path24440" />
    <path
       style="fill:none;stroke:#000000;stroke-width:0.369001"
       d="M 34.393584,178.06707 27.703753,159.6005"
       id="path24442" />
    <path
       style="fill:none;stroke:#000000;stroke-width:0.369001"
       d="M 44.0623,179.78692 34.027549,152.08708"
       id="path24444" />
    <path
       style="fill:none;stroke:#000000;stroke-width:0.369001"
       d="M 63.39973,183.22664 46.675148,137.06023"
       id="path24446" />
    <path
       style="fill:none;stroke:#000000;stroke-width:0.369001"
       d="m 73.068446,184.9465 -20.0695,-55.39969"
       id="path24448" />
    <path
       style="fill:none;stroke:#000000;stroke-width:0.369001"
       d="M 82.73716,186.66635 59.322744,122.03338"
       id="path24450" />
    <path
       style="fill:none;stroke:#000000;stroke-width:0.369001"
       d="M 102.07459,190.10607 71.970341,107.00653"
       id="path24452" />
    <path
       style="fill:none;stroke:#000000;stroke-width:0.369001"
       d="M 111.74331,191.82593 78.294139,99.493106"
       id="path24454" />
    <path
       style="fill:none;stroke:#000000;stroke-width:0.369001"
       d="M 121.41202,193.54579 84.617935,91.979685"
       id="path24456" />
    <path
       style="fill:none;stroke:#000000;stroke-width:0.369001"
       d="M 140.74944,196.9855 97.265531,76.952839"
       id="path24458" />
    <path
       style="fill:none;stroke:#000000;stroke-width:0.369001"
       d="M 150.41816,198.70536 103.58933,69.439419"
       id="path24460" />
    <path
       style="fill:none;stroke:#000000;stroke-width:0.369001"
       d="M 160.08687,200.42522 109.91313,61.92599"
       id="path24462" />
    <path
       style="fill:none;stroke:#000000;stroke-width:0.369001"
       d="M 164.92123,201.28515 113.12465,58.110328"
       id="path24567" />
    <path
       style="fill:none;stroke:#000000;stroke-width:0.369001"
       d="M 145.5838,197.84543 100.74652,72.817013"
       id="path24579" />
    <path
       style="fill:none;stroke:#000000;stroke-width:0.369001"
       d="M 135.91509,196.12557 94.470142,80.274093"
       id="path24583" />
    <path
       style="fill:none;stroke:#000000;stroke-width:0.369001"
       d="M 126.24637,194.40572 87.546486,88.500221"
       id="path24585" />
    <path
       style="fill:none;stroke:#000000;stroke-width:0.369001"
       d="M 116.57766,192.68586 82.076064,94.999732"
       id="path24587" />
    <path
       style="fill:none;stroke:#000000;stroke-width:0.369001"
       d="M 106.90895,190.966 75.248113,103.11215"
       id="path24589" />
    <path
       style="fill:none;stroke:#000000;stroke-width:0.369001"
       d="M 97.240224,189.24614 68.992728,110.54429"
       id="path24591" />
    <path
       style="fill:none;stroke:#000000;stroke-width:0.369001"
       d="M 87.571518,187.52628 62.387254,118.39238"
       id="path24593" />
    <path
       style="fill:none;stroke:#000000;stroke-width:0.369001"
       d="M 77.902802,185.80643 56.333355,125.58513"
       id="path24595" />
    <path
       style="fill:none;stroke:#000000;stroke-width:0.369001"
       d="M 68.234088,184.08657 49.58516,133.60279"
       id="path24597" />
    <path
       style="fill:none;stroke:#000000;stroke-width:0.369001"
       d="M 58.565375,182.36671 43.97118,140.27286"
       id="path24599" />
    <path
       style="fill:none;stroke:#000000;stroke-width:0.369001"
       d="m 48.896658,180.64685 -11.896989,-32.091"
       id="path24603" />
    <path
       style="fill:none;stroke:#000000;stroke-width:0.369001"
       d="M 39.227942,178.92699 30.500814,156.27726"
       id="path24607" />
    <path
       style="fill:none;stroke:#000000;stroke-width:0.369001"
       d="M 29.559226,177.20714 24.907823,162.9224"
       id="path24609" />
    <path
       style="fill:none;stroke:#000000;stroke-width:0.369001"
       d="m 19.890514,175.48728 -1.392133,-4.94971"
       id="path24621" />
    <path
       style="fill:none;stroke:#000000;stroke-width:0.369001"
       d="m 109.91313,61.92599 7.99626,-2.896782"
       id="path24623" />
    <path
       style="fill:none;stroke:#000000;stroke-width:0.369001"
       d="M 97.265528,76.952839 121.2543,68.262489"
       id="path24625" />
    <path
       style="fill:none;stroke:#000000;stroke-width:0.369001"
       d="M 84.617937,91.979685 124.59922,77.495769"
       id="path24627" />
    <path
       style="fill:none;stroke:#000000;stroke-width:0.369001"
       d="M 71.970341,107.00653 127.94413,86.729053 94.470143,80.274096"
       id="path24629" />
    <path
       style="fill:none;stroke:#000000;stroke-width:0.369001"
       d="M 59.322742,122.03338 131.28905,95.962336"
       id="path24633" />
    <path
       style="fill:none;stroke:#000000;stroke-width:0.369001"
       d="M 46.675148,137.06023 134.63397,105.19562"
       id="path24635" />
    <path
       style="fill:none;stroke:#000000;stroke-width:0.369001"
       d="M 34.027549,152.08708 137.97889,114.4289"
       id="path24637" />
    <path
       style="fill:none;stroke:#000000;stroke-width:0.369001"
       d="M 21.379955,167.11392 141.3238,123.66218"
       id="path24639" />
    <path
       style="fill:none;stroke:#000000;stroke-width:0.369001"
       d="M 24.724871,176.34721 144.66872,132.89547"
       id="path24641" />
    <path
       style="fill:none;stroke:#000000;stroke-width:0.369001"
       d="M 44.0623,179.78692 148.01364,142.12874"
       id="path24643" />
    <path
       style="fill:none;stroke:#000000;stroke-width:0.369001"
       d="m 63.39973,183.22664 87.95882,-31.86461"
       id="path24645" />
    <path
       style="fill:none;stroke:#000000;stroke-width:0.369001"
       d="M 82.73716,186.66635 154.70347,160.5953"
       id="path24647" />
    <path
       style="fill:none;stroke:#000000;stroke-width:0.369001"
       d="m 102.07459,190.10607 55.9738,-20.27748"
       id="path24649" />
    <path
       style="fill:none;stroke:#000000;stroke-width:0.369001"
       d="M 121.41202,193.54579 161.3933,179.06187"
       id="path24651" />
    <path
       style="fill:none;stroke:#000000;stroke-width:0.369001"
       d="m 140.74944,196.9855 23.98878,-8.69035"
       id="path24653" />
    <path
       style="fill:none;stroke:#000000;stroke-width:0.369001"
       d="m 160.08687,200.42522 7.99627,-2.89679"
       id="path24655" />
    <path
       style="fill:none;stroke:#000000;stroke-width:0.369001"
       d="M 18.498382,170.53757 168.08313,197.52843"
       id="path24657" />
    <path
       style="fill:none;stroke:#000000;stroke-width:0.369001"
       d="M 30.500814,156.27726 161.3933,179.06187"
       id="path24659" />
    <path
       style="fill:none;stroke:#000000;stroke-width:0.369001"
       d="M 36.999669,148.55585 158.04839,169.82859"
       id="path24661" />
    <path
       style="fill:none;stroke:#000000;stroke-width:0.369001"
       d="m 49.58516,133.60279 101.77339,17.75924"
       id="path24669" />
    <path
       style="fill:none;stroke:#000000;stroke-width:0.369001"
       d="M 43.97118,140.27286 154.70347,160.5953"
       id="path24671" />
    <path
       style="fill:none;stroke:#000000;stroke-width:0.369001"
       d="m 56.333355,125.58513 91.680285,16.54361"
       id="path24673" />
    <path
       style="fill:none;stroke:#000000;stroke-width:0.369001"
       d="m 62.387254,118.39238 82.281466,14.50309"
       id="path24675" />
    <path
       style="fill:none;stroke:#000000;stroke-width:0.369001"
       d="M 68.992728,110.54429 141.3238,123.66218"
       id="path24677" />
    <path
       style="fill:none;stroke:#000000;stroke-width:0.369001"
       d="M 75.248113,103.11215 137.97889,114.4289"
       id="path24679" />
    <path
       style="fill:none;stroke:#000000;stroke-width:0.369001"
       d="M 82.076064,94.999732 134.63397,105.19562"
       id="path24681" />
    <path
       style="fill:none;stroke:#000000;stroke-width:0.369001"
       d="m 87.546486,88.500221 43.742564,7.462113"
       id="path24683" />
    <path
       style="fill:none;stroke:#000000;stroke-width:0.369001"
       d="m 100.74652,72.817013 23.8527,4.678756"
       id="path24687" />
    <path
       style="fill:none;stroke:#000000;stroke-width:0.369001"
       d="m 113.12465,58.110328 4.78474,0.91888"
       id="path24691" />
    <path
       style="fill:none;stroke:#000000;stroke-width:0.369001"
       d="M 19.890514,175.48728 117.90939,59.029208"
       id="path24693" />
    <path
       style="fill:none;stroke:#000000;stroke-width:0.369001"
       d="M 29.559226,177.20714 121.2543,68.262489"
       id="path24695" />
    <path
       style="fill:none;stroke:#000000;stroke-width:0.369001"
       d="M 39.227942,178.92699 124.59922,77.495769"
       id="path24697" />
    <path
       style="fill:none;stroke:#000000;stroke-width:0.369001"
       d="M 48.896658,180.64685 127.94413,86.729053"
       id="path24699" />
    <path
       style="fill:none;stroke:#000000;stroke-width:0.369001"
       d="M 58.565375,182.36671 131.28905,95.962334"
       id="path24701" />
    <path
       style="fill:none;stroke:#000000;stroke-width:0.369001"
       d="M 68.234088,184.08657 134.63397,105.19562"
       id="path24703" />
    <path
       style="fill:none;stroke:#000000;stroke-width:0.369001"
       d="M 77.902802,185.80643 137.97889,114.4289"
       id="path24705" />
    <path
       style="fill:none;stroke:#000000;stroke-width:0.369001"
       d="M 87.571518,187.52628 141.3238,123.66218"
       id="path24707" />
    <path
       style="fill:none;stroke:#000000;stroke-width:0.369001"
       d="M 97.240224,189.24614 144.66872,132.89547"
       id="path24709" />
    <path
       style="fill:none;stroke:#000000;stroke-width:0.369001"
       d="m 116.57766,192.68586 34.78089,-41.32383"
       id="path24711" />
    <path
       style="fill:none;stroke:#000000;stroke-width:0.369001"
       d="m 126.24637,194.40572 28.4571,-33.81042"
       id="path24713" />
    <path
       style="fill:none;stroke:#000000;stroke-width:0.369001"
       d="m 135.91509,196.12557 22.13329,-26.29698"
       id="path24715" />
    <path
       style="fill:none;stroke:#000000;stroke-width:0.369001"
       d="m 145.5838,197.84543 15.8095,-18.78356"
       id="path24717" />
    <path
       style="fill:none;stroke:#000000;stroke-width:0.369001"
       d="m 155.25252,199.56529 9.4857,-11.27014"
       id="path24719" />
    <path
       style="fill:none;stroke:#000000;stroke-width:0.369001"
       d="m 106.90895,190.966 41.10468,-48.83726"
       id="path24721" />
    <path
       style="fill:none;stroke:#000000;stroke-width:0.369001"
       d="M 24.907823,162.9224 164.73822,188.29515"
       id="path24723" />
    <path
       style="fill:none;stroke:#000000;stroke-width:0.369001"
       d="M 155.25252,199.56529 106.33447,66.177858 121.2543,68.262489"
       id="path24727" />
  </g>
</svg>
